G75*
%MOIN*%
%OFA0B0*%
%FSLAX24Y24*%
%IPPOS*%
%LPD*%
%AMOC8*
5,1,8,0,0,1.08239X$1,22.5*
%
%ADD10R,0.0670X0.0670*%
%ADD11R,0.0310X0.0120*%
%ADD12R,0.0120X0.0310*%
%ADD13R,0.0276X0.0354*%
%ADD14R,0.0300X0.0500*%
%ADD15R,0.0354X0.0276*%
%ADD16R,0.1575X0.0630*%
%ADD17R,0.0866X0.0236*%
%ADD18R,0.0630X0.1063*%
%ADD19R,0.1063X0.0630*%
%ADD20R,0.0236X0.0866*%
%ADD21R,0.2000X0.0900*%
%ADD22OC8,0.0476*%
%ADD23C,0.0476*%
%ADD24R,0.0710X0.0630*%
%ADD25C,0.0600*%
%ADD26R,0.0500X0.0300*%
%ADD27C,0.0100*%
%ADD28C,0.0436*%
%ADD29C,0.0300*%
%ADD30C,0.0500*%
%ADD31C,0.0340*%
%ADD32C,0.0140*%
%ADD33C,0.0900*%
%ADD34C,0.0200*%
D10*
X011983Y011521D03*
X013853Y008781D03*
D11*
X014443Y008651D03*
X014443Y008911D03*
X013263Y008911D03*
X013263Y008651D03*
X012573Y011391D03*
X012573Y011651D03*
X011393Y011651D03*
X011393Y011391D03*
D12*
X011853Y010931D03*
X012113Y010931D03*
X012113Y012111D03*
X011853Y012111D03*
X013723Y009371D03*
X013983Y009371D03*
X013983Y008191D03*
X013723Y008191D03*
D13*
X013982Y010381D03*
X014494Y010381D03*
X016527Y006431D03*
X017039Y006431D03*
X008629Y007791D03*
X008117Y007791D03*
X006759Y010421D03*
X006247Y010421D03*
X004054Y017226D03*
X003542Y017226D03*
D14*
X012993Y014201D03*
X013993Y014201D03*
X013993Y013101D03*
X012993Y013101D03*
D15*
X012123Y013495D03*
X012123Y014007D03*
X011523Y014007D03*
X011523Y013495D03*
X010183Y012157D03*
X010183Y011645D03*
X013983Y011647D03*
X013983Y011135D03*
X015213Y009167D03*
X015213Y008655D03*
X015773Y008655D03*
X015773Y009167D03*
X007343Y005367D03*
X007343Y004855D03*
X005433Y009895D03*
X005433Y010407D03*
X008048Y016720D03*
X008048Y017232D03*
D16*
X005931Y006981D03*
X003136Y006981D03*
D17*
X005025Y015726D03*
X005025Y016226D03*
X005025Y016726D03*
X005025Y017226D03*
X007072Y017226D03*
X007072Y016726D03*
X007072Y016226D03*
X007072Y015726D03*
D18*
X005050Y014546D03*
X003947Y014546D03*
X009122Y008871D03*
X010225Y008871D03*
X010482Y006921D03*
X011585Y006921D03*
X011575Y004891D03*
X010472Y004891D03*
D19*
X007048Y013775D03*
X007048Y014877D03*
X008948Y015075D03*
X008948Y016177D03*
D20*
X009123Y006915D03*
X008623Y006915D03*
X008123Y006915D03*
X009623Y006915D03*
X009623Y004868D03*
X009123Y004868D03*
X008623Y004868D03*
X008123Y004868D03*
D21*
X019323Y004691D03*
X019323Y006431D03*
X019323Y008171D03*
D22*
X005413Y011641D03*
D23*
X005913Y012141D03*
X006413Y011641D03*
D24*
X008183Y011641D03*
X008183Y012761D03*
D25*
X001983Y005181D02*
X001383Y005181D01*
X001383Y004181D02*
X001983Y004181D01*
D26*
X015573Y007051D03*
X016673Y007051D03*
X016673Y008051D03*
X015573Y008051D03*
D27*
X000783Y010769D02*
X000783Y003731D01*
X003318Y003731D01*
X003294Y003755D01*
X003294Y003755D01*
X002797Y004252D01*
X002736Y004399D01*
X002736Y006516D01*
X002286Y006516D01*
X002209Y006594D01*
X002083Y006468D01*
X002083Y005627D01*
X002238Y005563D01*
X002365Y005436D01*
X002433Y005271D01*
X002433Y005092D01*
X002365Y004926D01*
X002238Y004800D01*
X002073Y004731D01*
X001294Y004731D01*
X001128Y004800D01*
X001002Y004926D01*
X000933Y005092D01*
X000933Y005271D01*
X001002Y005436D01*
X001128Y005563D01*
X001283Y005627D01*
X001283Y006713D01*
X001344Y006860D01*
X001457Y006973D01*
X001752Y007268D01*
X001756Y007277D01*
X001808Y007324D01*
X001857Y007373D01*
X001866Y007377D01*
X001874Y007384D01*
X001939Y007407D01*
X002004Y007434D01*
X002014Y007434D01*
X002024Y007437D01*
X002093Y007434D01*
X002163Y007434D01*
X002172Y007430D01*
X002265Y007425D01*
X002286Y007446D01*
X003985Y007446D01*
X004073Y007358D01*
X004073Y006604D01*
X003985Y006516D01*
X003536Y006516D01*
X003536Y004645D01*
X003799Y004381D01*
X007855Y004381D01*
X007855Y004568D01*
X007583Y004568D01*
X007583Y004568D01*
X007432Y004568D01*
X007403Y004555D01*
X007284Y004555D01*
X007254Y004568D01*
X007104Y004568D01*
X007016Y004655D01*
X007016Y005055D01*
X007104Y005143D01*
X007237Y005143D01*
X007296Y005168D01*
X007855Y005168D01*
X007855Y005363D01*
X007943Y005451D01*
X008304Y005451D01*
X008373Y005381D01*
X008443Y005451D01*
X008804Y005451D01*
X008873Y005381D01*
X008943Y005451D01*
X009304Y005451D01*
X009373Y005381D01*
X009443Y005451D01*
X009804Y005451D01*
X009891Y005363D01*
X009891Y005191D01*
X010007Y005191D01*
X010007Y005485D01*
X010095Y005573D01*
X010849Y005573D01*
X010937Y005485D01*
X010937Y004298D01*
X010849Y004210D01*
X010095Y004210D01*
X010007Y004298D01*
X010007Y004591D01*
X009891Y004591D01*
X009891Y004372D01*
X009804Y004285D01*
X009733Y004285D01*
X009733Y003902D01*
X009672Y003755D01*
X009649Y003731D01*
X019883Y003731D01*
X019883Y005831D01*
X018214Y005831D01*
X017993Y005923D01*
X017825Y006091D01*
X017816Y006111D01*
X017246Y006111D01*
X017239Y006104D01*
X016839Y006104D01*
X016783Y006160D01*
X016727Y006104D01*
X016327Y006104D01*
X016320Y006111D01*
X015244Y006111D01*
X015231Y006107D01*
X015181Y006111D01*
X015130Y006111D01*
X015118Y006116D01*
X014953Y006129D01*
X014953Y006129D01*
X014546Y006274D01*
X014546Y006274D01*
X014191Y006519D01*
X014191Y006519D01*
X014191Y006519D01*
X013911Y006847D01*
X013911Y006847D01*
X013725Y007237D01*
X013725Y007237D01*
X013647Y007662D01*
X013647Y007662D01*
X013664Y007877D01*
X013665Y007886D01*
X013601Y007886D01*
X013513Y007974D01*
X013513Y008408D01*
X013601Y008496D01*
X013845Y008496D01*
X013853Y008488D01*
X013861Y008496D01*
X014105Y008496D01*
X014193Y008408D01*
X014193Y008292D01*
X014203Y008282D01*
X014203Y008086D01*
X014268Y008010D01*
X014307Y007889D01*
X014302Y007826D01*
X014300Y007695D01*
X014348Y007439D01*
X014460Y007203D01*
X014629Y007005D01*
X014844Y006857D01*
X015089Y006769D01*
X015212Y006751D01*
X015253Y006751D01*
X015253Y006759D01*
X015173Y006839D01*
X015173Y007263D01*
X015261Y007351D01*
X015461Y007351D01*
X015510Y007371D01*
X015637Y007371D01*
X015685Y007351D01*
X015885Y007351D01*
X015973Y007263D01*
X015973Y006839D01*
X015893Y006759D01*
X015893Y006751D01*
X016320Y006751D01*
X016327Y006758D01*
X016354Y006758D01*
X016273Y006839D01*
X016273Y007263D01*
X016361Y007351D01*
X016985Y007351D01*
X017073Y007263D01*
X017073Y006839D01*
X016993Y006758D01*
X017239Y006758D01*
X017246Y006751D01*
X017816Y006751D01*
X017825Y006771D01*
X017993Y006940D01*
X018214Y007031D01*
X019883Y007031D01*
X019883Y010769D01*
X019731Y010681D01*
X019469Y010611D01*
X019198Y010611D01*
X018936Y010681D01*
X018701Y010817D01*
X018509Y011009D01*
X018374Y011244D01*
X018303Y011506D01*
X018303Y011777D01*
X018374Y012039D01*
X018509Y012274D01*
X018701Y012465D01*
X018936Y012601D01*
X019198Y012671D01*
X019469Y012671D01*
X019731Y012601D01*
X019883Y012513D01*
X019883Y016409D01*
X019731Y016321D01*
X019469Y016251D01*
X019198Y016251D01*
X018936Y016321D01*
X018701Y016457D01*
X018509Y016649D01*
X018374Y016884D01*
X018303Y017146D01*
X018303Y017417D01*
X018374Y017679D01*
X018462Y017831D01*
X002205Y017831D01*
X002293Y017679D01*
X002363Y017417D01*
X002363Y017146D01*
X002293Y016884D01*
X002158Y016649D01*
X001966Y016457D01*
X001731Y016321D01*
X001469Y016251D01*
X001198Y016251D01*
X000936Y016321D01*
X000783Y016409D01*
X000783Y012513D01*
X000936Y012601D01*
X001198Y012671D01*
X001469Y012671D01*
X001731Y012601D01*
X001966Y012465D01*
X002158Y012274D01*
X002293Y012039D01*
X002363Y011777D01*
X002363Y011506D01*
X002293Y011244D01*
X002158Y011009D01*
X001966Y010817D01*
X001731Y010681D01*
X001469Y010611D01*
X001198Y010611D01*
X000936Y010681D01*
X000783Y010769D01*
X000783Y010767D02*
X000787Y010767D01*
X000783Y010669D02*
X000983Y010669D01*
X000783Y010570D02*
X003263Y010570D01*
X003263Y010472D02*
X000783Y010472D01*
X000783Y010373D02*
X003263Y010373D01*
X003263Y010275D02*
X000783Y010275D01*
X000783Y010176D02*
X003263Y010176D01*
X003263Y010078D02*
X000783Y010078D01*
X000783Y009979D02*
X003281Y009979D01*
X003263Y010022D02*
X003324Y009875D01*
X003437Y009762D01*
X004667Y008532D01*
X004814Y008471D01*
X008657Y008471D01*
X008657Y008278D01*
X008745Y008190D01*
X008822Y008190D01*
X008822Y008118D01*
X008429Y008118D01*
X008341Y008031D01*
X008341Y007880D01*
X008329Y007851D01*
X008329Y006989D01*
X008323Y006975D01*
X008323Y006855D01*
X008355Y006778D01*
X008355Y006420D01*
X008443Y006332D01*
X008804Y006332D01*
X008873Y006402D01*
X008943Y006332D01*
X009304Y006332D01*
X009373Y006402D01*
X009443Y006332D01*
X009804Y006332D01*
X009891Y006420D01*
X009891Y006615D01*
X010017Y006615D01*
X010017Y006328D01*
X010105Y006240D01*
X010859Y006240D01*
X010947Y006328D01*
X010947Y007515D01*
X010859Y007603D01*
X010105Y007603D01*
X010017Y007515D01*
X010017Y007215D01*
X009891Y007215D01*
X009891Y007410D01*
X009804Y007498D01*
X009443Y007498D01*
X009422Y007477D01*
X009422Y008190D01*
X009499Y008190D01*
X009587Y008278D01*
X009587Y009465D01*
X009499Y009553D01*
X008745Y009553D01*
X008657Y009465D01*
X008657Y009271D01*
X005733Y009271D01*
X005733Y009668D01*
X005760Y009695D01*
X005760Y010095D01*
X005749Y010107D01*
X006034Y010107D01*
X006047Y010094D01*
X006447Y010094D01*
X006535Y010182D01*
X006535Y010332D01*
X006547Y010362D01*
X006547Y010481D01*
X006535Y010510D01*
X006535Y010661D01*
X006447Y010748D01*
X006047Y010748D01*
X006006Y010707D01*
X005733Y010707D01*
X005733Y011413D01*
X005801Y011481D01*
X005801Y011768D01*
X005836Y011753D01*
X005990Y011753D01*
X006050Y011778D01*
X006026Y011718D01*
X006026Y011564D01*
X006085Y011422D01*
X006194Y011313D01*
X006336Y011253D01*
X006490Y011253D01*
X006633Y011313D01*
X006642Y011321D01*
X007678Y011321D01*
X007678Y011264D01*
X007766Y011176D01*
X008600Y011176D01*
X008688Y011264D01*
X008688Y011325D01*
X010932Y011325D01*
X011083Y011319D01*
X011088Y011321D01*
X011088Y011269D01*
X011176Y011181D01*
X011610Y011181D01*
X011698Y011269D01*
X011698Y011513D01*
X011690Y011521D01*
X011698Y011529D01*
X011698Y011668D01*
X011703Y011704D01*
X011698Y011710D01*
X011698Y011773D01*
X011610Y011861D01*
X011487Y011861D01*
X011330Y011881D01*
X011305Y011861D01*
X011266Y011861D01*
X011226Y011904D01*
X011111Y011958D01*
X011010Y011963D01*
X011003Y011965D01*
X010946Y011965D01*
X010890Y011968D01*
X010883Y011965D01*
X010510Y011965D01*
X010510Y012357D01*
X010486Y012381D01*
X011696Y012381D01*
X011643Y012328D01*
X011643Y011894D01*
X011731Y011806D01*
X011975Y011806D01*
X011983Y011814D01*
X011991Y011806D01*
X012235Y011806D01*
X012323Y011894D01*
X012323Y012010D01*
X012333Y012020D01*
X012333Y012319D01*
X012363Y012392D01*
X012363Y013208D01*
X012450Y013295D01*
X012450Y013671D01*
X012987Y013671D01*
X013105Y013720D01*
X013186Y013801D01*
X013205Y013801D01*
X013293Y013889D01*
X013293Y013949D01*
X013313Y013998D01*
X013313Y014265D01*
X013293Y014313D01*
X013293Y014513D01*
X013205Y014601D01*
X012781Y014601D01*
X012693Y014513D01*
X012693Y014313D01*
X012693Y014311D01*
X012225Y014311D01*
X012187Y014327D01*
X012123Y014327D01*
X012123Y015156D01*
X012142Y015175D01*
X012199Y015311D01*
X014298Y015311D01*
X015093Y014516D01*
X015093Y009702D01*
X015154Y009555D01*
X015173Y009536D01*
X015173Y009487D01*
X015150Y009487D01*
X015073Y009456D01*
X015073Y010431D01*
X015035Y010523D01*
X014965Y010593D01*
X014873Y010631D01*
X014771Y010631D01*
X014694Y010708D01*
X014303Y010708D01*
X014303Y010928D01*
X014310Y010935D01*
X014310Y011335D01*
X014255Y011391D01*
X014310Y011447D01*
X014310Y011587D01*
X014313Y011594D01*
X014313Y013165D01*
X014293Y013213D01*
X014293Y013413D01*
X014205Y013501D01*
X013781Y013501D01*
X013693Y013413D01*
X013693Y013213D01*
X013673Y013165D01*
X013673Y011971D01*
X012870Y011971D01*
X012752Y011923D01*
X012701Y011871D01*
X012482Y011871D01*
X012472Y011861D01*
X012356Y011861D01*
X012268Y011773D01*
X012268Y011529D01*
X012276Y011521D01*
X012268Y011513D01*
X012268Y011269D01*
X012356Y011181D01*
X012790Y011181D01*
X012878Y011269D01*
X012878Y011331D01*
X013656Y011331D01*
X013656Y010935D01*
X013663Y010928D01*
X013663Y010447D01*
X013662Y010445D01*
X013662Y009679D01*
X013663Y009676D01*
X013601Y009676D01*
X013513Y009588D01*
X013513Y009154D01*
X013601Y009066D01*
X013845Y009066D01*
X013853Y009074D01*
X013861Y009066D01*
X014105Y009066D01*
X014193Y009154D01*
X014193Y009270D01*
X014203Y009280D01*
X014203Y009509D01*
X014255Y009560D01*
X014303Y009678D01*
X014303Y009805D01*
X014302Y009807D01*
X014302Y010054D01*
X014573Y010054D01*
X014573Y009121D01*
X014226Y009121D01*
X014138Y009033D01*
X014138Y008789D01*
X014146Y008781D01*
X014138Y008773D01*
X014138Y008529D01*
X014226Y008441D01*
X014342Y008441D01*
X014352Y008431D01*
X014621Y008431D01*
X014694Y008401D01*
X014940Y008401D01*
X014974Y008368D01*
X015453Y008368D01*
X015540Y008455D01*
X015540Y008847D01*
X016345Y008847D01*
X016353Y008839D01*
X016353Y008343D01*
X016273Y008263D01*
X016273Y007839D01*
X016361Y007751D01*
X016561Y007751D01*
X016610Y007731D01*
X016737Y007731D01*
X016785Y007751D01*
X016985Y007751D01*
X017073Y007839D01*
X017073Y008263D01*
X016993Y008343D01*
X016993Y009035D01*
X016945Y009153D01*
X016855Y009243D01*
X016659Y009438D01*
X016541Y009487D01*
X015813Y009487D01*
X015813Y009536D01*
X015832Y009555D01*
X015893Y009702D01*
X015893Y014761D01*
X015832Y014908D01*
X015720Y015020D01*
X014802Y015938D01*
X014690Y016050D01*
X014543Y016111D01*
X012059Y016111D01*
X011654Y016517D01*
X011507Y016577D01*
X009607Y016577D01*
X009542Y016642D01*
X008375Y016642D01*
X008375Y016920D01*
X008288Y017008D01*
X008146Y017008D01*
X008102Y017026D01*
X007012Y017026D01*
X006935Y016994D01*
X006577Y016994D01*
X006489Y016907D01*
X006489Y016546D01*
X006559Y016476D01*
X006489Y016407D01*
X006489Y016046D01*
X006559Y015976D01*
X006489Y015907D01*
X006489Y015546D01*
X006577Y015458D01*
X006772Y015458D01*
X006772Y015342D01*
X006455Y015342D01*
X006367Y015255D01*
X006367Y014500D01*
X006455Y014413D01*
X007642Y014413D01*
X007730Y014500D01*
X007730Y015255D01*
X007642Y015342D01*
X007372Y015342D01*
X007372Y015458D01*
X007567Y015458D01*
X007655Y015546D01*
X007655Y015907D01*
X007635Y015926D01*
X008267Y015926D01*
X008267Y015800D01*
X008355Y015713D01*
X009542Y015713D01*
X009607Y015777D01*
X011261Y015777D01*
X011403Y015636D01*
X011403Y015322D01*
X011464Y015175D01*
X011483Y015156D01*
X011483Y014327D01*
X011460Y014327D01*
X011382Y014295D01*
X011284Y014295D01*
X011196Y014207D01*
X011196Y013807D01*
X011284Y013719D01*
X011382Y013719D01*
X011460Y013687D01*
X011796Y013687D01*
X011796Y013295D01*
X011863Y013228D01*
X011863Y012881D01*
X010134Y012881D01*
X010042Y012843D01*
X009971Y012773D01*
X009933Y012681D01*
X009933Y012434D01*
X009856Y012357D01*
X009856Y011965D01*
X008688Y011965D01*
X008688Y012019D01*
X008600Y012106D01*
X007766Y012106D01*
X007678Y012019D01*
X007678Y011961D01*
X006642Y011961D01*
X006633Y011970D01*
X006490Y012029D01*
X006336Y012029D01*
X006276Y012004D01*
X006301Y012064D01*
X006301Y012218D01*
X006242Y012361D01*
X006133Y012470D01*
X005990Y012529D01*
X005836Y012529D01*
X005694Y012470D01*
X005585Y012361D01*
X005526Y012218D01*
X005526Y012064D01*
X005540Y012029D01*
X005253Y012029D01*
X005026Y011802D01*
X005026Y011481D01*
X005133Y011373D01*
X005133Y010634D01*
X005106Y010607D01*
X005106Y010207D01*
X005162Y010151D01*
X005106Y010095D01*
X005106Y009695D01*
X005133Y009668D01*
X005133Y009271D01*
X005059Y009271D01*
X004063Y010267D01*
X004063Y011746D01*
X005260Y012942D01*
X005372Y013055D01*
X005433Y013202D01*
X005433Y013872D01*
X005514Y013953D01*
X005514Y015140D01*
X005450Y015205D01*
X005450Y015458D01*
X005520Y015458D01*
X005608Y015546D01*
X005608Y015907D01*
X005538Y015976D01*
X005608Y016046D01*
X005608Y016407D01*
X005538Y016476D01*
X005608Y016546D01*
X005608Y016907D01*
X005538Y016976D01*
X005608Y017046D01*
X005608Y017407D01*
X005520Y017494D01*
X005161Y017494D01*
X005084Y017526D01*
X004281Y017526D01*
X004254Y017553D01*
X003854Y017553D01*
X003766Y017466D01*
X003766Y017315D01*
X003754Y017286D01*
X003754Y017167D01*
X003766Y017137D01*
X003766Y016987D01*
X003854Y016899D01*
X004254Y016899D01*
X004281Y016926D01*
X004461Y016926D01*
X004442Y016907D01*
X004442Y016546D01*
X004511Y016476D01*
X004442Y016407D01*
X004442Y016046D01*
X004511Y015976D01*
X004442Y015907D01*
X004442Y015546D01*
X004530Y015458D01*
X004650Y015458D01*
X004650Y015205D01*
X004585Y015140D01*
X004585Y013953D01*
X004633Y013904D01*
X004633Y013447D01*
X003324Y012138D01*
X003263Y011991D01*
X003263Y010022D01*
X003322Y009881D02*
X000783Y009881D01*
X000783Y009782D02*
X003417Y009782D01*
X003437Y009762D02*
X003437Y009762D01*
X003515Y009684D02*
X000783Y009684D01*
X000783Y009585D02*
X003614Y009585D01*
X003712Y009487D02*
X000783Y009487D01*
X000783Y009388D02*
X003811Y009388D01*
X003909Y009290D02*
X000783Y009290D01*
X000783Y009191D02*
X004008Y009191D01*
X004106Y009093D02*
X000783Y009093D01*
X000783Y008994D02*
X004205Y008994D01*
X004303Y008896D02*
X000783Y008896D01*
X000783Y008797D02*
X004402Y008797D01*
X004500Y008699D02*
X000783Y008699D01*
X000783Y008600D02*
X004599Y008600D01*
X004740Y008502D02*
X000783Y008502D01*
X000783Y008403D02*
X008657Y008403D01*
X008657Y008305D02*
X000783Y008305D01*
X000783Y008206D02*
X008729Y008206D01*
X008419Y008108D02*
X000783Y008108D01*
X000783Y008009D02*
X008341Y008009D01*
X008341Y007911D02*
X000783Y007911D01*
X000783Y007812D02*
X008329Y007812D01*
X008329Y007714D02*
X000783Y007714D01*
X000783Y007615D02*
X008329Y007615D01*
X008329Y007517D02*
X000783Y007517D01*
X000783Y007418D02*
X001967Y007418D01*
X001803Y007320D02*
X000783Y007320D01*
X000783Y007221D02*
X001705Y007221D01*
X001607Y007123D02*
X000783Y007123D01*
X000783Y007024D02*
X001508Y007024D01*
X001410Y006926D02*
X000783Y006926D01*
X000783Y006827D02*
X001331Y006827D01*
X001290Y006729D02*
X000783Y006729D01*
X000783Y006630D02*
X001283Y006630D01*
X001283Y006532D02*
X000783Y006532D01*
X000783Y006433D02*
X001283Y006433D01*
X001283Y006335D02*
X000783Y006335D01*
X000783Y006236D02*
X001283Y006236D01*
X001283Y006138D02*
X000783Y006138D01*
X000783Y006039D02*
X001283Y006039D01*
X001283Y005941D02*
X000783Y005941D01*
X000783Y005842D02*
X001283Y005842D01*
X001283Y005744D02*
X000783Y005744D01*
X000783Y005645D02*
X001283Y005645D01*
X001112Y005547D02*
X000783Y005547D01*
X000783Y005448D02*
X001014Y005448D01*
X000966Y005350D02*
X000783Y005350D01*
X000783Y005251D02*
X000933Y005251D01*
X000933Y005153D02*
X000783Y005153D01*
X000783Y005054D02*
X000949Y005054D01*
X000990Y004956D02*
X000783Y004956D01*
X000783Y004857D02*
X001071Y004857D01*
X001227Y004759D02*
X000783Y004759D01*
X000783Y004660D02*
X002736Y004660D01*
X002736Y004562D02*
X000783Y004562D01*
X000783Y004463D02*
X002736Y004463D01*
X002750Y004365D02*
X000783Y004365D01*
X000783Y004266D02*
X002791Y004266D01*
X002881Y004168D02*
X000783Y004168D01*
X000783Y004069D02*
X002980Y004069D01*
X003078Y003971D02*
X000783Y003971D01*
X000783Y003872D02*
X003177Y003872D01*
X003275Y003774D02*
X000783Y003774D01*
X002139Y004759D02*
X002736Y004759D01*
X002736Y004857D02*
X002296Y004857D01*
X002377Y004956D02*
X002736Y004956D01*
X002736Y005054D02*
X002418Y005054D01*
X002433Y005153D02*
X002736Y005153D01*
X002736Y005251D02*
X002433Y005251D01*
X002401Y005350D02*
X002736Y005350D01*
X002736Y005448D02*
X002353Y005448D01*
X002254Y005547D02*
X002736Y005547D01*
X002736Y005645D02*
X002083Y005645D01*
X002083Y005744D02*
X002736Y005744D01*
X002736Y005842D02*
X002083Y005842D01*
X002083Y005941D02*
X002736Y005941D01*
X002736Y006039D02*
X002083Y006039D01*
X002083Y006138D02*
X002736Y006138D01*
X002736Y006236D02*
X002083Y006236D01*
X002083Y006335D02*
X002736Y006335D01*
X002736Y006433D02*
X002083Y006433D01*
X002147Y006532D02*
X002271Y006532D01*
X003536Y006433D02*
X008355Y006433D01*
X008355Y006532D02*
X004001Y006532D01*
X004073Y006630D02*
X008355Y006630D01*
X008355Y006729D02*
X004073Y006729D01*
X004073Y006827D02*
X008335Y006827D01*
X008323Y006926D02*
X004073Y006926D01*
X004073Y007024D02*
X008329Y007024D01*
X008329Y007123D02*
X004073Y007123D01*
X004073Y007221D02*
X008329Y007221D01*
X008329Y007320D02*
X004073Y007320D01*
X004013Y007418D02*
X008329Y007418D01*
X009422Y007517D02*
X010019Y007517D01*
X010017Y007418D02*
X009883Y007418D01*
X009891Y007320D02*
X010017Y007320D01*
X010017Y007221D02*
X009891Y007221D01*
X009422Y007615D02*
X013656Y007615D01*
X013651Y007714D02*
X009422Y007714D01*
X009422Y007812D02*
X013659Y007812D01*
X013577Y007911D02*
X009422Y007911D01*
X009422Y008009D02*
X013513Y008009D01*
X013513Y008108D02*
X009422Y008108D01*
X009516Y008206D02*
X013513Y008206D01*
X013513Y008305D02*
X009587Y008305D01*
X009587Y008403D02*
X013513Y008403D01*
X013480Y008441D02*
X013568Y008529D01*
X013568Y008773D01*
X013560Y008781D01*
X013568Y008789D01*
X013568Y009033D01*
X013480Y009121D01*
X013046Y009121D01*
X012958Y009033D01*
X012958Y008789D01*
X012966Y008781D01*
X012958Y008773D01*
X012958Y008529D01*
X013046Y008441D01*
X013480Y008441D01*
X013541Y008502D02*
X014166Y008502D01*
X014138Y008600D02*
X013568Y008600D01*
X013568Y008699D02*
X014138Y008699D01*
X014138Y008797D02*
X013568Y008797D01*
X013568Y008896D02*
X014138Y008896D01*
X014138Y008994D02*
X013568Y008994D01*
X013575Y009093D02*
X013509Y009093D01*
X013513Y009191D02*
X009587Y009191D01*
X009587Y009093D02*
X013018Y009093D01*
X012958Y008994D02*
X009587Y008994D01*
X009587Y008896D02*
X012958Y008896D01*
X012958Y008797D02*
X009587Y008797D01*
X009587Y008699D02*
X012958Y008699D01*
X012958Y008600D02*
X009587Y008600D01*
X009587Y008502D02*
X012986Y008502D01*
X013513Y009290D02*
X009587Y009290D01*
X009587Y009388D02*
X013513Y009388D01*
X013513Y009487D02*
X009565Y009487D01*
X008679Y009487D02*
X005733Y009487D01*
X005733Y009585D02*
X013513Y009585D01*
X013662Y009684D02*
X005749Y009684D01*
X005760Y009782D02*
X013662Y009782D01*
X013662Y009881D02*
X005760Y009881D01*
X005760Y009979D02*
X013662Y009979D01*
X013662Y010078D02*
X005760Y010078D01*
X005137Y010176D02*
X004154Y010176D01*
X004063Y010275D02*
X005106Y010275D01*
X005106Y010373D02*
X004063Y010373D01*
X004063Y010472D02*
X005106Y010472D01*
X005106Y010570D02*
X004063Y010570D01*
X004063Y010669D02*
X005133Y010669D01*
X005133Y010767D02*
X004063Y010767D01*
X004063Y010866D02*
X005133Y010866D01*
X005133Y010964D02*
X004063Y010964D01*
X004063Y011063D02*
X005133Y011063D01*
X005133Y011161D02*
X004063Y011161D01*
X004063Y011260D02*
X005133Y011260D01*
X005133Y011358D02*
X004063Y011358D01*
X004063Y011457D02*
X005049Y011457D01*
X005026Y011555D02*
X004063Y011555D01*
X004063Y011654D02*
X005026Y011654D01*
X005026Y011752D02*
X004070Y011752D01*
X004169Y011851D02*
X005074Y011851D01*
X005173Y011949D02*
X004267Y011949D01*
X004366Y012048D02*
X005532Y012048D01*
X005526Y012146D02*
X004464Y012146D01*
X004563Y012245D02*
X005536Y012245D01*
X005577Y012343D02*
X004661Y012343D01*
X004760Y012442D02*
X005665Y012442D01*
X006161Y012442D02*
X009933Y012442D01*
X009933Y012540D02*
X004858Y012540D01*
X004957Y012639D02*
X009933Y012639D01*
X009957Y012737D02*
X005055Y012737D01*
X005154Y012836D02*
X010034Y012836D01*
X009856Y012343D02*
X006249Y012343D01*
X006290Y012245D02*
X009856Y012245D01*
X009856Y012146D02*
X006301Y012146D01*
X006294Y012048D02*
X007708Y012048D01*
X007683Y011260D02*
X006506Y011260D01*
X006321Y011260D02*
X005733Y011260D01*
X005733Y011358D02*
X006148Y011358D01*
X006070Y011457D02*
X005777Y011457D01*
X005801Y011555D02*
X006029Y011555D01*
X006026Y011654D02*
X005801Y011654D01*
X005801Y011752D02*
X006040Y011752D01*
X005733Y011161D02*
X011656Y011161D01*
X011643Y011148D02*
X011731Y011236D01*
X011975Y011236D01*
X011983Y011228D01*
X011991Y011236D01*
X012235Y011236D01*
X012323Y011148D01*
X012323Y010714D01*
X012235Y010626D01*
X011991Y010626D01*
X011983Y010634D01*
X011975Y010626D01*
X011731Y010626D01*
X011643Y010714D01*
X011643Y011148D01*
X011643Y011063D02*
X005733Y011063D01*
X005733Y010964D02*
X011643Y010964D01*
X011643Y010866D02*
X005733Y010866D01*
X005733Y010767D02*
X011643Y010767D01*
X011689Y010669D02*
X006527Y010669D01*
X006535Y010570D02*
X013663Y010570D01*
X013663Y010472D02*
X006547Y010472D01*
X006547Y010373D02*
X013662Y010373D01*
X013662Y010275D02*
X006535Y010275D01*
X006530Y010176D02*
X013662Y010176D01*
X013663Y010669D02*
X012278Y010669D01*
X012323Y010767D02*
X013663Y010767D01*
X013663Y010866D02*
X012323Y010866D01*
X012323Y010964D02*
X013656Y010964D01*
X013656Y011063D02*
X012323Y011063D01*
X012310Y011161D02*
X013656Y011161D01*
X013656Y011260D02*
X012869Y011260D01*
X012278Y011260D02*
X011689Y011260D01*
X011698Y011358D02*
X012268Y011358D01*
X012268Y011457D02*
X011698Y011457D01*
X011698Y011555D02*
X012268Y011555D01*
X012268Y011654D02*
X011698Y011654D01*
X011698Y011752D02*
X012268Y011752D01*
X012280Y011851D02*
X012346Y011851D01*
X012323Y011949D02*
X012817Y011949D01*
X012333Y012048D02*
X013673Y012048D01*
X013673Y012146D02*
X012333Y012146D01*
X012333Y012245D02*
X013673Y012245D01*
X013673Y012343D02*
X012343Y012343D01*
X012363Y012442D02*
X013673Y012442D01*
X013673Y012540D02*
X012363Y012540D01*
X012363Y012639D02*
X013673Y012639D01*
X013673Y012737D02*
X013241Y012737D01*
X013205Y012701D02*
X013293Y012789D01*
X013293Y013413D01*
X013205Y013501D01*
X012781Y013501D01*
X012693Y013413D01*
X012693Y012789D01*
X012781Y012701D01*
X013205Y012701D01*
X013293Y012836D02*
X013673Y012836D01*
X013673Y012934D02*
X013293Y012934D01*
X013293Y013033D02*
X013673Y013033D01*
X013673Y013131D02*
X013293Y013131D01*
X013293Y013230D02*
X013693Y013230D01*
X013693Y013328D02*
X013293Y013328D01*
X013280Y013427D02*
X013707Y013427D01*
X013781Y013801D02*
X014205Y013801D01*
X014293Y013889D01*
X014293Y014513D01*
X014205Y014601D01*
X013781Y014601D01*
X013693Y014513D01*
X013693Y013889D01*
X013781Y013801D01*
X013762Y013821D02*
X013225Y013821D01*
X013293Y013919D02*
X013693Y013919D01*
X013693Y014018D02*
X013313Y014018D01*
X013313Y014116D02*
X013693Y014116D01*
X013693Y014215D02*
X013313Y014215D01*
X013293Y014313D02*
X013693Y014313D01*
X013693Y014412D02*
X013293Y014412D01*
X013293Y014510D02*
X013693Y014510D01*
X014293Y014510D02*
X015093Y014510D01*
X015093Y014412D02*
X014293Y014412D01*
X014293Y014313D02*
X015093Y014313D01*
X015093Y014215D02*
X014293Y014215D01*
X014293Y014116D02*
X015093Y014116D01*
X015093Y014018D02*
X014293Y014018D01*
X014293Y013919D02*
X015093Y013919D01*
X015093Y013821D02*
X014225Y013821D01*
X014280Y013427D02*
X015093Y013427D01*
X015093Y013525D02*
X012450Y013525D01*
X012450Y013427D02*
X012707Y013427D01*
X012693Y013328D02*
X012450Y013328D01*
X012385Y013230D02*
X012693Y013230D01*
X012693Y013131D02*
X012363Y013131D01*
X012363Y013033D02*
X012693Y013033D01*
X012693Y012934D02*
X012363Y012934D01*
X012363Y012836D02*
X012693Y012836D01*
X012745Y012737D02*
X012363Y012737D01*
X011863Y012934D02*
X005252Y012934D01*
X005351Y013033D02*
X011863Y013033D01*
X011863Y013131D02*
X005404Y013131D01*
X005433Y013230D02*
X011862Y013230D01*
X011796Y013328D02*
X005433Y013328D01*
X005433Y013427D02*
X011796Y013427D01*
X011796Y013525D02*
X005433Y013525D01*
X005433Y013624D02*
X011796Y013624D01*
X011281Y013722D02*
X005433Y013722D01*
X005433Y013821D02*
X011196Y013821D01*
X011196Y013919D02*
X005481Y013919D01*
X005514Y014018D02*
X011196Y014018D01*
X011196Y014116D02*
X005514Y014116D01*
X005514Y014215D02*
X011204Y014215D01*
X011426Y014313D02*
X005514Y014313D01*
X005514Y014412D02*
X011483Y014412D01*
X011483Y014510D02*
X007730Y014510D01*
X007730Y014609D02*
X011483Y014609D01*
X011483Y014707D02*
X007730Y014707D01*
X007730Y014806D02*
X011483Y014806D01*
X011483Y014904D02*
X007730Y014904D01*
X007730Y015003D02*
X011483Y015003D01*
X011483Y015101D02*
X007730Y015101D01*
X007730Y015200D02*
X011454Y015200D01*
X011413Y015298D02*
X007686Y015298D01*
X007604Y015495D02*
X011403Y015495D01*
X011403Y015397D02*
X007372Y015397D01*
X007655Y015594D02*
X011403Y015594D01*
X011347Y015692D02*
X007655Y015692D01*
X007655Y015791D02*
X008276Y015791D01*
X008267Y015889D02*
X007655Y015889D01*
X006772Y015397D02*
X005450Y015397D01*
X005450Y015298D02*
X006411Y015298D01*
X006367Y015200D02*
X005455Y015200D01*
X005514Y015101D02*
X006367Y015101D01*
X006367Y015003D02*
X005514Y015003D01*
X005514Y014904D02*
X006367Y014904D01*
X006367Y014806D02*
X005514Y014806D01*
X005514Y014707D02*
X006367Y014707D01*
X006367Y014609D02*
X005514Y014609D01*
X005514Y014510D02*
X006367Y014510D01*
X006540Y015495D02*
X005557Y015495D01*
X005608Y015594D02*
X006489Y015594D01*
X006489Y015692D02*
X005608Y015692D01*
X005608Y015791D02*
X006489Y015791D01*
X006489Y015889D02*
X005608Y015889D01*
X005550Y015988D02*
X006547Y015988D01*
X006489Y016086D02*
X005608Y016086D01*
X005608Y016185D02*
X006489Y016185D01*
X006489Y016283D02*
X005608Y016283D01*
X005608Y016382D02*
X006489Y016382D01*
X006555Y016480D02*
X005542Y016480D01*
X005608Y016579D02*
X006489Y016579D01*
X006489Y016677D02*
X005608Y016677D01*
X005608Y016776D02*
X006489Y016776D01*
X006489Y016874D02*
X005608Y016874D01*
X005541Y016973D02*
X006555Y016973D01*
X005608Y017071D02*
X018323Y017071D01*
X018303Y017170D02*
X005608Y017170D01*
X005608Y017268D02*
X018303Y017268D01*
X018303Y017367D02*
X005608Y017367D01*
X005549Y017465D02*
X018316Y017465D01*
X018343Y017564D02*
X002324Y017564D01*
X002298Y017662D02*
X018369Y017662D01*
X018421Y017761D02*
X002246Y017761D01*
X002350Y017465D02*
X003766Y017465D01*
X003766Y017367D02*
X002363Y017367D01*
X002363Y017268D02*
X003754Y017268D01*
X003754Y017170D02*
X002363Y017170D01*
X002343Y017071D02*
X003766Y017071D01*
X003781Y016973D02*
X002317Y016973D01*
X002288Y016874D02*
X004442Y016874D01*
X004442Y016776D02*
X002231Y016776D01*
X002174Y016677D02*
X004442Y016677D01*
X004442Y016579D02*
X002088Y016579D01*
X001989Y016480D02*
X004507Y016480D01*
X004442Y016382D02*
X001835Y016382D01*
X001588Y016283D02*
X004442Y016283D01*
X004442Y016185D02*
X000783Y016185D01*
X000783Y016283D02*
X001078Y016283D01*
X000831Y016382D02*
X000783Y016382D01*
X000783Y016086D02*
X004442Y016086D01*
X004500Y015988D02*
X000783Y015988D01*
X000783Y015889D02*
X004442Y015889D01*
X004442Y015791D02*
X000783Y015791D01*
X000783Y015692D02*
X004442Y015692D01*
X004442Y015594D02*
X000783Y015594D01*
X000783Y015495D02*
X004492Y015495D01*
X004650Y015397D02*
X000783Y015397D01*
X000783Y015298D02*
X004650Y015298D01*
X004644Y015200D02*
X000783Y015200D01*
X000783Y015101D02*
X004585Y015101D01*
X004585Y015003D02*
X000783Y015003D01*
X000783Y014904D02*
X004585Y014904D01*
X004585Y014806D02*
X000783Y014806D01*
X000783Y014707D02*
X004585Y014707D01*
X004585Y014609D02*
X000783Y014609D01*
X000783Y014510D02*
X004585Y014510D01*
X004585Y014412D02*
X000783Y014412D01*
X000783Y014313D02*
X004585Y014313D01*
X004585Y014215D02*
X000783Y014215D01*
X000783Y014116D02*
X004585Y014116D01*
X004585Y014018D02*
X000783Y014018D01*
X000783Y013919D02*
X004618Y013919D01*
X004633Y013821D02*
X000783Y013821D01*
X000783Y013722D02*
X004633Y013722D01*
X004633Y013624D02*
X000783Y013624D01*
X000783Y013525D02*
X004633Y013525D01*
X004613Y013427D02*
X000783Y013427D01*
X000783Y013328D02*
X004515Y013328D01*
X004416Y013230D02*
X000783Y013230D01*
X000783Y013131D02*
X004318Y013131D01*
X004219Y013033D02*
X000783Y013033D01*
X000783Y012934D02*
X004121Y012934D01*
X004022Y012836D02*
X000783Y012836D01*
X000783Y012737D02*
X003924Y012737D01*
X003825Y012639D02*
X001590Y012639D01*
X001836Y012540D02*
X003727Y012540D01*
X003628Y012442D02*
X001989Y012442D01*
X002088Y012343D02*
X003530Y012343D01*
X003431Y012245D02*
X002174Y012245D01*
X002231Y012146D02*
X003333Y012146D01*
X003287Y012048D02*
X002288Y012048D01*
X002317Y011949D02*
X003263Y011949D01*
X003263Y011851D02*
X002344Y011851D01*
X002363Y011752D02*
X003263Y011752D01*
X003263Y011654D02*
X002363Y011654D01*
X002363Y011555D02*
X003263Y011555D01*
X003263Y011457D02*
X002350Y011457D01*
X002324Y011358D02*
X003263Y011358D01*
X003263Y011260D02*
X002297Y011260D01*
X002246Y011161D02*
X003263Y011161D01*
X003263Y011063D02*
X002189Y011063D01*
X002113Y010964D02*
X003263Y010964D01*
X003263Y010866D02*
X002014Y010866D01*
X001880Y010767D02*
X003263Y010767D01*
X003263Y010669D02*
X001684Y010669D01*
X000830Y012540D02*
X000783Y012540D01*
X000783Y012639D02*
X001077Y012639D01*
X004253Y010078D02*
X005106Y010078D01*
X005106Y009979D02*
X004351Y009979D01*
X004450Y009881D02*
X005106Y009881D01*
X005106Y009782D02*
X004548Y009782D01*
X004647Y009684D02*
X005118Y009684D01*
X005133Y009585D02*
X004745Y009585D01*
X004844Y009487D02*
X005133Y009487D01*
X005133Y009388D02*
X004942Y009388D01*
X005041Y009290D02*
X005133Y009290D01*
X005733Y009290D02*
X008657Y009290D01*
X008657Y009388D02*
X005733Y009388D01*
X008684Y011260D02*
X011098Y011260D01*
X011130Y011949D02*
X011643Y011949D01*
X011643Y012048D02*
X010510Y012048D01*
X010510Y012146D02*
X011643Y012146D01*
X011643Y012245D02*
X010510Y012245D01*
X010510Y012343D02*
X011658Y012343D01*
X011687Y011851D02*
X011621Y011851D01*
X009856Y012048D02*
X008659Y012048D01*
X012123Y014412D02*
X012693Y014412D01*
X012693Y014510D02*
X012123Y014510D01*
X012123Y014609D02*
X015000Y014609D01*
X014902Y014707D02*
X012123Y014707D01*
X012123Y014806D02*
X014803Y014806D01*
X014705Y014904D02*
X012123Y014904D01*
X012123Y015003D02*
X014606Y015003D01*
X014508Y015101D02*
X012123Y015101D01*
X012153Y015200D02*
X014409Y015200D01*
X014311Y015298D02*
X012194Y015298D01*
X012220Y014313D02*
X012693Y014313D01*
X013107Y013722D02*
X015093Y013722D01*
X015093Y013624D02*
X012450Y013624D01*
X014293Y013328D02*
X015093Y013328D01*
X015093Y013230D02*
X014293Y013230D01*
X014313Y013131D02*
X015093Y013131D01*
X015093Y013033D02*
X014313Y013033D01*
X014313Y012934D02*
X015093Y012934D01*
X015093Y012836D02*
X014313Y012836D01*
X014313Y012737D02*
X015093Y012737D01*
X015093Y012639D02*
X014313Y012639D01*
X014313Y012540D02*
X015093Y012540D01*
X015093Y012442D02*
X014313Y012442D01*
X014313Y012343D02*
X015093Y012343D01*
X015093Y012245D02*
X014313Y012245D01*
X014313Y012146D02*
X015093Y012146D01*
X015093Y012048D02*
X014313Y012048D01*
X014313Y011949D02*
X015093Y011949D01*
X015093Y011851D02*
X014313Y011851D01*
X014313Y011752D02*
X015093Y011752D01*
X015093Y011654D02*
X014313Y011654D01*
X014310Y011555D02*
X015093Y011555D01*
X015093Y011457D02*
X014310Y011457D01*
X014287Y011358D02*
X015093Y011358D01*
X015093Y011260D02*
X014310Y011260D01*
X014310Y011161D02*
X015093Y011161D01*
X015093Y011063D02*
X014310Y011063D01*
X014310Y010964D02*
X015093Y010964D01*
X015093Y010866D02*
X014303Y010866D01*
X014303Y010767D02*
X015093Y010767D01*
X015093Y010669D02*
X014734Y010669D01*
X014988Y010570D02*
X015093Y010570D01*
X015093Y010472D02*
X015056Y010472D01*
X015073Y010373D02*
X015093Y010373D01*
X015093Y010275D02*
X015073Y010275D01*
X015073Y010176D02*
X015093Y010176D01*
X015093Y010078D02*
X015073Y010078D01*
X015073Y009979D02*
X015093Y009979D01*
X015093Y009881D02*
X015073Y009881D01*
X015073Y009782D02*
X015093Y009782D01*
X015101Y009684D02*
X015073Y009684D01*
X015073Y009585D02*
X015142Y009585D01*
X015149Y009487D02*
X015073Y009487D01*
X014573Y009487D02*
X014203Y009487D01*
X014203Y009388D02*
X014573Y009388D01*
X014573Y009290D02*
X014203Y009290D01*
X014193Y009191D02*
X014573Y009191D01*
X014573Y009585D02*
X014265Y009585D01*
X014303Y009684D02*
X014573Y009684D01*
X014573Y009782D02*
X014303Y009782D01*
X014302Y009881D02*
X014573Y009881D01*
X014573Y009979D02*
X014302Y009979D01*
X014198Y009093D02*
X014132Y009093D01*
X014193Y008403D02*
X014689Y008403D01*
X015173Y008263D02*
X015173Y007839D01*
X015261Y007751D01*
X015885Y007751D01*
X015973Y007839D01*
X015973Y008263D01*
X015885Y008351D01*
X015261Y008351D01*
X015173Y008263D01*
X015173Y008206D02*
X014203Y008206D01*
X014203Y008108D02*
X015173Y008108D01*
X015173Y008009D02*
X014269Y008009D01*
X014300Y007911D02*
X015173Y007911D01*
X015200Y007812D02*
X014302Y007812D01*
X014301Y007714D02*
X019883Y007714D01*
X019883Y007812D02*
X017046Y007812D01*
X017073Y007911D02*
X019883Y007911D01*
X019883Y008009D02*
X017073Y008009D01*
X017073Y008108D02*
X019883Y008108D01*
X019883Y008206D02*
X017073Y008206D01*
X017032Y008305D02*
X019883Y008305D01*
X019883Y008403D02*
X016993Y008403D01*
X016993Y008502D02*
X019883Y008502D01*
X019883Y008600D02*
X016993Y008600D01*
X016993Y008699D02*
X019883Y008699D01*
X019883Y008797D02*
X016993Y008797D01*
X016993Y008896D02*
X019883Y008896D01*
X019883Y008994D02*
X016993Y008994D01*
X016969Y009093D02*
X019883Y009093D01*
X019883Y009191D02*
X016906Y009191D01*
X016807Y009290D02*
X019883Y009290D01*
X019883Y009388D02*
X016709Y009388D01*
X016542Y009487D02*
X019883Y009487D01*
X019883Y009585D02*
X015845Y009585D01*
X015886Y009684D02*
X019883Y009684D01*
X019883Y009782D02*
X015893Y009782D01*
X015893Y009881D02*
X019883Y009881D01*
X019883Y009979D02*
X015893Y009979D01*
X015893Y010078D02*
X019883Y010078D01*
X019883Y010176D02*
X015893Y010176D01*
X015893Y010275D02*
X019883Y010275D01*
X019883Y010373D02*
X015893Y010373D01*
X015893Y010472D02*
X019883Y010472D01*
X019883Y010570D02*
X015893Y010570D01*
X015893Y010669D02*
X018983Y010669D01*
X018787Y010767D02*
X015893Y010767D01*
X015893Y010866D02*
X018652Y010866D01*
X018554Y010964D02*
X015893Y010964D01*
X015893Y011063D02*
X018478Y011063D01*
X018421Y011161D02*
X015893Y011161D01*
X015893Y011260D02*
X018369Y011260D01*
X018343Y011358D02*
X015893Y011358D01*
X015893Y011457D02*
X018316Y011457D01*
X018303Y011555D02*
X015893Y011555D01*
X015893Y011654D02*
X018303Y011654D01*
X018303Y011752D02*
X015893Y011752D01*
X015893Y011851D02*
X018323Y011851D01*
X018350Y011949D02*
X015893Y011949D01*
X015893Y012048D02*
X018379Y012048D01*
X018436Y012146D02*
X015893Y012146D01*
X015893Y012245D02*
X018492Y012245D01*
X018579Y012343D02*
X015893Y012343D01*
X015893Y012442D02*
X018677Y012442D01*
X018830Y012540D02*
X015893Y012540D01*
X015893Y012639D02*
X019077Y012639D01*
X019590Y012639D02*
X019883Y012639D01*
X019883Y012737D02*
X015893Y012737D01*
X015893Y012836D02*
X019883Y012836D01*
X019883Y012934D02*
X015893Y012934D01*
X015893Y013033D02*
X019883Y013033D01*
X019883Y013131D02*
X015893Y013131D01*
X015893Y013230D02*
X019883Y013230D01*
X019883Y013328D02*
X015893Y013328D01*
X015893Y013427D02*
X019883Y013427D01*
X019883Y013525D02*
X015893Y013525D01*
X015893Y013624D02*
X019883Y013624D01*
X019883Y013722D02*
X015893Y013722D01*
X015893Y013821D02*
X019883Y013821D01*
X019883Y013919D02*
X015893Y013919D01*
X015893Y014018D02*
X019883Y014018D01*
X019883Y014116D02*
X015893Y014116D01*
X015893Y014215D02*
X019883Y014215D01*
X019883Y014313D02*
X015893Y014313D01*
X015893Y014412D02*
X019883Y014412D01*
X019883Y014510D02*
X015893Y014510D01*
X015893Y014609D02*
X019883Y014609D01*
X019883Y014707D02*
X015893Y014707D01*
X015875Y014806D02*
X019883Y014806D01*
X019883Y014904D02*
X015834Y014904D01*
X015737Y015003D02*
X019883Y015003D01*
X019883Y015101D02*
X015639Y015101D01*
X015720Y015020D02*
X015720Y015020D01*
X015540Y015200D02*
X019883Y015200D01*
X019883Y015298D02*
X015442Y015298D01*
X015343Y015397D02*
X019883Y015397D01*
X019883Y015495D02*
X015245Y015495D01*
X015146Y015594D02*
X019883Y015594D01*
X019883Y015692D02*
X015048Y015692D01*
X014949Y015791D02*
X019883Y015791D01*
X019883Y015889D02*
X014851Y015889D01*
X014802Y015938D02*
X014802Y015938D01*
X014752Y015988D02*
X019883Y015988D01*
X019883Y016086D02*
X014603Y016086D01*
X011985Y016185D02*
X019883Y016185D01*
X019883Y016283D02*
X019588Y016283D01*
X019835Y016382D02*
X019883Y016382D01*
X019078Y016283D02*
X011887Y016283D01*
X011788Y016382D02*
X018831Y016382D01*
X018678Y016480D02*
X011690Y016480D01*
X009606Y016579D02*
X018579Y016579D01*
X018493Y016677D02*
X008375Y016677D01*
X008375Y016776D02*
X018436Y016776D01*
X018379Y016874D02*
X008375Y016874D01*
X008323Y016973D02*
X018350Y016973D01*
X019836Y012540D02*
X019883Y012540D01*
X019880Y010767D02*
X019883Y010767D01*
X019883Y010669D02*
X019684Y010669D01*
X016353Y008797D02*
X015540Y008797D01*
X015540Y008699D02*
X016353Y008699D01*
X016353Y008600D02*
X015540Y008600D01*
X015540Y008502D02*
X016353Y008502D01*
X016353Y008403D02*
X015488Y008403D01*
X015932Y008305D02*
X016315Y008305D01*
X016273Y008206D02*
X015973Y008206D01*
X015973Y008108D02*
X016273Y008108D01*
X016273Y008009D02*
X015973Y008009D01*
X015973Y007911D02*
X016273Y007911D01*
X016300Y007812D02*
X015946Y007812D01*
X015917Y007320D02*
X016330Y007320D01*
X016273Y007221D02*
X015973Y007221D01*
X015973Y007123D02*
X016273Y007123D01*
X016273Y007024D02*
X015973Y007024D01*
X015973Y006926D02*
X016273Y006926D01*
X016285Y006827D02*
X015961Y006827D01*
X015185Y006827D02*
X014926Y006827D01*
X014743Y006926D02*
X015173Y006926D01*
X015173Y007024D02*
X014612Y007024D01*
X014528Y007123D02*
X015173Y007123D01*
X015173Y007221D02*
X014451Y007221D01*
X014404Y007320D02*
X015230Y007320D01*
X014357Y007418D02*
X019883Y007418D01*
X019883Y007320D02*
X017017Y007320D01*
X017073Y007221D02*
X019883Y007221D01*
X019883Y007123D02*
X017073Y007123D01*
X017073Y007024D02*
X018197Y007024D01*
X017979Y006926D02*
X017073Y006926D01*
X017061Y006827D02*
X017881Y006827D01*
X017877Y006039D02*
X003536Y006039D01*
X003536Y005941D02*
X017975Y005941D01*
X018187Y005842D02*
X003536Y005842D01*
X003536Y005744D02*
X019883Y005744D01*
X019883Y005645D02*
X003536Y005645D01*
X003536Y005547D02*
X010069Y005547D01*
X010007Y005448D02*
X009806Y005448D01*
X009891Y005350D02*
X010007Y005350D01*
X010007Y005251D02*
X009891Y005251D01*
X009441Y005448D02*
X009306Y005448D01*
X008941Y005448D02*
X008806Y005448D01*
X008441Y005448D02*
X008306Y005448D01*
X007941Y005448D02*
X003536Y005448D01*
X003536Y005350D02*
X007855Y005350D01*
X007855Y005251D02*
X003536Y005251D01*
X003536Y005153D02*
X007260Y005153D01*
X007016Y005054D02*
X003536Y005054D01*
X003536Y004956D02*
X007016Y004956D01*
X007016Y004857D02*
X003536Y004857D01*
X003536Y004759D02*
X007016Y004759D01*
X007016Y004660D02*
X003536Y004660D01*
X003619Y004562D02*
X007268Y004562D01*
X007418Y004562D02*
X007855Y004562D01*
X007855Y004463D02*
X003717Y004463D01*
X003536Y006138D02*
X014929Y006138D01*
X014652Y006236D02*
X003536Y006236D01*
X003536Y006335D02*
X008440Y006335D01*
X008807Y006335D02*
X008940Y006335D01*
X009307Y006335D02*
X009440Y006335D01*
X009807Y006335D02*
X010017Y006335D01*
X010017Y006433D02*
X009891Y006433D01*
X009891Y006532D02*
X010017Y006532D01*
X010947Y006532D02*
X014180Y006532D01*
X014096Y006630D02*
X010947Y006630D01*
X010947Y006729D02*
X014012Y006729D01*
X013928Y006827D02*
X010947Y006827D01*
X010947Y006926D02*
X013873Y006926D01*
X013827Y007024D02*
X010947Y007024D01*
X010947Y007123D02*
X013780Y007123D01*
X013733Y007221D02*
X010947Y007221D01*
X010947Y007320D02*
X013710Y007320D01*
X013692Y007418D02*
X010947Y007418D01*
X010945Y007517D02*
X013674Y007517D01*
X014315Y007615D02*
X019883Y007615D01*
X019883Y007517D02*
X014333Y007517D01*
X014193Y008305D02*
X015215Y008305D01*
X014315Y006433D02*
X010947Y006433D01*
X010947Y006335D02*
X014458Y006335D01*
X016761Y006138D02*
X016806Y006138D01*
X019883Y005547D02*
X010875Y005547D01*
X010937Y005448D02*
X019883Y005448D01*
X019883Y005350D02*
X010937Y005350D01*
X010937Y005251D02*
X019883Y005251D01*
X019883Y005153D02*
X010937Y005153D01*
X010937Y005054D02*
X019883Y005054D01*
X019883Y004956D02*
X010937Y004956D01*
X010937Y004857D02*
X019883Y004857D01*
X019883Y004759D02*
X010937Y004759D01*
X010937Y004660D02*
X019883Y004660D01*
X019883Y004562D02*
X010937Y004562D01*
X010937Y004463D02*
X019883Y004463D01*
X019883Y004365D02*
X010937Y004365D01*
X010906Y004266D02*
X019883Y004266D01*
X019883Y004168D02*
X009733Y004168D01*
X009733Y004266D02*
X010039Y004266D01*
X010007Y004365D02*
X009884Y004365D01*
X009891Y004463D02*
X010007Y004463D01*
X010007Y004562D02*
X009891Y004562D01*
X009733Y004069D02*
X019883Y004069D01*
X019883Y003971D02*
X009733Y003971D01*
X009721Y003872D02*
X019883Y003872D01*
X019883Y003774D02*
X009680Y003774D01*
D28*
X012533Y005981D03*
X013853Y008781D03*
X016133Y007581D03*
X011993Y011521D03*
X010633Y013481D03*
X010133Y014981D03*
X005953Y014001D03*
X003533Y015881D03*
X007333Y007381D03*
X017433Y014781D03*
X015933Y017081D03*
D29*
X008948Y016177D02*
X008900Y016226D01*
X007072Y016226D01*
X007072Y015726D02*
X007072Y014901D01*
X007048Y014877D01*
X007072Y016726D02*
X008042Y016726D01*
X008048Y016720D01*
X005025Y016726D02*
X005025Y017226D01*
X004054Y017226D01*
X005025Y016226D02*
X005025Y015726D01*
X005413Y011641D02*
X005433Y011621D01*
X005433Y010407D01*
X006233Y010407D01*
X006247Y010421D01*
X005433Y009895D02*
X005433Y008911D01*
X005393Y008871D01*
X004893Y008871D01*
X008629Y007791D02*
X008629Y006915D01*
X008623Y006915D01*
X009122Y006916D02*
X009123Y006915D01*
X009122Y006916D02*
X009122Y008871D01*
X009623Y006915D02*
X010482Y006915D01*
X010482Y006921D01*
X010472Y004891D02*
X009623Y004891D01*
X009623Y004868D01*
X009333Y004868D01*
X009123Y004868D01*
X008623Y004868D02*
X008123Y004868D01*
X007356Y004868D01*
X007343Y004855D01*
D30*
X009333Y004868D02*
X009333Y003981D01*
X003633Y003981D01*
X003136Y004479D01*
X003136Y006981D01*
X002083Y007034D01*
X001683Y006634D01*
X001683Y005181D01*
X004893Y008871D02*
X003663Y010101D01*
X003663Y011911D01*
X005033Y013281D01*
X005033Y014530D01*
X005050Y014546D01*
X005050Y015701D01*
X005025Y015726D01*
X005050Y014546D02*
X005083Y014512D01*
X008948Y016177D02*
X011427Y016177D01*
X011803Y015801D01*
X011803Y015711D01*
X014463Y015711D01*
X015493Y014681D01*
X015493Y009781D01*
X009122Y008871D02*
X004893Y008871D01*
X011803Y015401D02*
X011803Y015711D01*
D31*
X011803Y015401D02*
X011803Y014057D01*
X011853Y014007D01*
X011523Y014007D01*
X011853Y014007D02*
X012123Y014007D01*
X012139Y013991D01*
X012923Y013991D01*
X012993Y014061D01*
X012993Y014201D01*
X013993Y013101D02*
X013993Y011657D01*
X013983Y011647D01*
X013979Y011651D01*
X012933Y011651D01*
X013983Y011135D02*
X013983Y010382D01*
X013982Y010381D01*
X013982Y009742D01*
X013983Y009741D01*
X015213Y009167D02*
X015493Y009167D01*
X015493Y009781D01*
X015213Y009167D02*
X015773Y009167D01*
X016477Y009167D01*
X016673Y008971D01*
X016673Y008051D01*
X015193Y006431D02*
X015122Y006439D01*
X015051Y006450D01*
X014982Y006465D01*
X014913Y006484D01*
X014845Y006507D01*
X014779Y006534D01*
X014714Y006563D01*
X014651Y006597D01*
X014589Y006634D01*
X014530Y006674D01*
X014473Y006717D01*
X014419Y006763D01*
X014367Y006812D01*
X014318Y006864D01*
X014271Y006918D01*
X014228Y006975D01*
X014188Y007034D01*
X014151Y007095D01*
X014117Y007158D01*
X014087Y007223D01*
X014061Y007289D01*
X014038Y007357D01*
X014018Y007426D01*
X014003Y007495D01*
X013991Y007566D01*
X013984Y007637D01*
X013980Y007708D01*
X013979Y007780D01*
X013983Y007851D01*
X015573Y007051D02*
X015573Y006431D01*
X016527Y006431D01*
X017039Y006431D02*
X018333Y006431D01*
X015573Y006431D02*
X015193Y006431D01*
X011033Y011641D02*
X010939Y011645D01*
X010183Y011645D01*
X008183Y011645D01*
X008183Y011641D01*
X008183Y011641D01*
X006413Y011641D01*
D32*
X011033Y011641D02*
X011473Y011641D01*
X011393Y011651D01*
X012113Y012111D02*
X012113Y012441D01*
X012573Y011651D02*
X012933Y011651D01*
X013983Y009741D02*
X013983Y009371D01*
X014443Y008651D02*
X014743Y008651D01*
X013983Y008191D02*
X013983Y007851D01*
D33*
X018333Y006431D02*
X019323Y006431D01*
D34*
X015213Y008655D02*
X015209Y008651D01*
X014823Y008651D01*
X014823Y010381D01*
X014494Y010381D01*
X014743Y008651D02*
X014823Y008651D01*
X012113Y012441D02*
X012113Y012631D01*
X010183Y012631D01*
X010183Y012157D01*
X012113Y012631D02*
X012113Y013495D01*
X012123Y013495D01*
M02*
