%
M48
M72
T01C0.0276
T02C0.0400
T03C0.1160
%
T01
X7333Y7381
X11993Y11521
X10633Y13481
X10133Y14981
X6413Y11641
X5913Y12141
X5413Y11641
X5953Y14001
X3533Y15881
X13853Y8781
X16133Y7581
X12533Y5981
X17433Y14781
X15933Y17081
T02
X1683Y4181
X1683Y5181
T03
X1333Y11641
X1333Y17281
X19333Y17281
X19333Y11641
M30
