G75*
%MOIN*%
%OFA0B0*%
%FSLAX24Y24*%
%IPPOS*%
%LPD*%
%AMOC8*
5,1,8,0,0,1.08239X$1,22.5*
%
%ADD10R,0.0670X0.0670*%
%ADD11R,0.0310X0.0120*%
%ADD12R,0.0120X0.0310*%
%ADD13R,0.0276X0.0354*%
%ADD14R,0.0300X0.0500*%
%ADD15R,0.0354X0.0276*%
%ADD16R,0.1575X0.0630*%
%ADD17R,0.0866X0.0236*%
%ADD18R,0.0630X0.1063*%
%ADD19R,0.1063X0.0630*%
%ADD20R,0.0236X0.0866*%
%ADD21R,0.2000X0.0900*%
%ADD22R,0.0710X0.0630*%
%ADD23R,0.0500X0.0300*%
D10*
X011983Y011521D03*
X013853Y008781D03*
D11*
X014443Y008651D03*
X014443Y008911D03*
X013263Y008911D03*
X013263Y008651D03*
X012573Y011391D03*
X012573Y011651D03*
X011393Y011651D03*
X011393Y011391D03*
D12*
X011853Y010931D03*
X012113Y010931D03*
X012113Y012111D03*
X011853Y012111D03*
X013723Y009371D03*
X013983Y009371D03*
X013983Y008191D03*
X013723Y008191D03*
D13*
X013982Y010381D03*
X014494Y010381D03*
X016527Y006431D03*
X017039Y006431D03*
X008629Y007791D03*
X008117Y007791D03*
X006759Y010421D03*
X006247Y010421D03*
X004054Y017226D03*
X003542Y017226D03*
D14*
X012993Y014201D03*
X013993Y014201D03*
X013993Y013101D03*
X012993Y013101D03*
D15*
X007343Y004855D03*
X007343Y005367D03*
X005433Y009895D03*
X005433Y010407D03*
X010183Y011645D03*
X010183Y012157D03*
X011523Y013495D03*
X011523Y014007D03*
X012123Y014007D03*
X012123Y013495D03*
X013983Y011647D03*
X013983Y011135D03*
X015213Y009167D03*
X015213Y008655D03*
X015773Y008655D03*
X015773Y009167D03*
X008048Y016720D03*
X008048Y017232D03*
D16*
X005931Y006981D03*
X003136Y006981D03*
D17*
X005025Y015726D03*
X005025Y016226D03*
X005025Y016726D03*
X005025Y017226D03*
X007072Y017226D03*
X007072Y016726D03*
X007072Y016226D03*
X007072Y015726D03*
D18*
X005050Y014546D03*
X003947Y014546D03*
X009122Y008871D03*
X010225Y008871D03*
X010482Y006921D03*
X011585Y006921D03*
X011575Y004891D03*
X010472Y004891D03*
D19*
X007048Y013775D03*
X007048Y014877D03*
X008948Y015075D03*
X008948Y016177D03*
D20*
X009123Y006915D03*
X008623Y006915D03*
X008123Y006915D03*
X009623Y006915D03*
X009623Y004868D03*
X009123Y004868D03*
X008623Y004868D03*
X008123Y004868D03*
D21*
X019323Y004691D03*
X019323Y006431D03*
X019323Y008171D03*
D22*
X008183Y011641D03*
X008183Y012761D03*
D23*
X015573Y008051D03*
X016673Y008051D03*
X016673Y007051D03*
X015573Y007051D03*
M02*
