G75*
%MOIN*%
%OFA0B0*%
%FSLAX24Y24*%
%IPPOS*%
%LPD*%
%AMOC8*
5,1,8,0,0,1.08239X$1,22.5*
%
%ADD10C,0.1240*%
%ADD11R,0.0750X0.0750*%
%ADD12R,0.0390X0.0200*%
%ADD13R,0.0200X0.0390*%
%ADD14R,0.0356X0.0434*%
%ADD15R,0.0380X0.0580*%
%ADD16R,0.0434X0.0356*%
%ADD17R,0.1655X0.0710*%
%ADD18R,0.0946X0.0316*%
%ADD19R,0.0710X0.1143*%
%ADD20R,0.1143X0.0710*%
%ADD21R,0.0316X0.0946*%
%ADD22R,0.2080X0.0980*%
%ADD23OC8,0.0556*%
%ADD24C,0.0556*%
%ADD25R,0.0790X0.0710*%
%ADD26C,0.0680*%
%ADD27R,0.0580X0.0380*%
%ADD28C,0.0516*%
D10*
X001333Y011641D03*
X001333Y017281D03*
X019333Y017281D03*
X019333Y011641D03*
D11*
X013853Y008781D03*
X011983Y011521D03*
D12*
X011393Y011391D03*
X011393Y011651D03*
X012573Y011651D03*
X012573Y011391D03*
X013263Y008911D03*
X013263Y008651D03*
X014443Y008651D03*
X014443Y008911D03*
D13*
X013983Y009371D03*
X013723Y009371D03*
X013723Y008191D03*
X013983Y008191D03*
X012113Y010931D03*
X011853Y010931D03*
X011853Y012111D03*
X012113Y012111D03*
D14*
X013982Y010381D03*
X014494Y010381D03*
X016527Y006431D03*
X017039Y006431D03*
X008629Y007791D03*
X008117Y007791D03*
X006759Y010421D03*
X006247Y010421D03*
X004054Y017226D03*
X003542Y017226D03*
D15*
X012993Y014201D03*
X013993Y014201D03*
X013993Y013101D03*
X012993Y013101D03*
D16*
X012123Y013495D03*
X012123Y014007D03*
X011523Y014007D03*
X011523Y013495D03*
X010183Y012157D03*
X010183Y011645D03*
X013983Y011647D03*
X013983Y011135D03*
X015213Y009167D03*
X015213Y008655D03*
X015773Y008655D03*
X015773Y009167D03*
X007343Y005367D03*
X007343Y004855D03*
X005433Y009895D03*
X005433Y010407D03*
X008048Y016720D03*
X008048Y017232D03*
D17*
X005931Y006981D03*
X003136Y006981D03*
D18*
X005025Y015726D03*
X005025Y016226D03*
X005025Y016726D03*
X005025Y017226D03*
X007072Y017226D03*
X007072Y016726D03*
X007072Y016226D03*
X007072Y015726D03*
D19*
X005050Y014546D03*
X003947Y014546D03*
X009122Y008871D03*
X010225Y008871D03*
X010482Y006921D03*
X011585Y006921D03*
X011575Y004891D03*
X010472Y004891D03*
D20*
X007048Y013775D03*
X007048Y014877D03*
X008948Y015075D03*
X008948Y016177D03*
D21*
X009123Y006915D03*
X008623Y006915D03*
X008123Y006915D03*
X009623Y006915D03*
X009623Y004868D03*
X009123Y004868D03*
X008623Y004868D03*
X008123Y004868D03*
D22*
X019323Y004691D03*
X019323Y006431D03*
X019323Y008171D03*
D23*
X005413Y011641D03*
D24*
X005913Y012141D03*
X006413Y011641D03*
D25*
X008183Y011641D03*
X008183Y012761D03*
D26*
X001983Y004181D02*
X001383Y004181D01*
X001383Y005181D02*
X001983Y005181D01*
D27*
X015573Y007051D03*
X016673Y007051D03*
X016673Y008051D03*
X015573Y008051D03*
D28*
X016133Y007581D03*
X013853Y008781D03*
X011993Y011521D03*
X010633Y013481D03*
X010133Y014981D03*
X005953Y014001D03*
X003533Y015881D03*
X007333Y007381D03*
X012533Y005981D03*
X017433Y014781D03*
X015933Y017081D03*
M02*
